<?xml version="1.0" encoding="UTF-8"?>
<svg xmlns="http://www.w3.org/2000/svg" xmlns:xlink="http://www.w3.org/1999/xlink" width="200px" height="302px" viewBox="0 0 200 302" version="1.1">
<defs>
<clipPath id="clip1">
  <path d="M 2.355469 254.332031 L 34 254.332031 L 34 301.253906 L 2.355469 301.253906 Z M 2.355469 254.332031 "/>
</clipPath>
<clipPath id="clip2">
  <path d="M 82 254.332031 L 114 254.332031 L 114 301.253906 L 82 301.253906 Z M 82 254.332031 "/>
</clipPath>
<clipPath id="clip3">
  <path d="M 119 254.332031 L 158 254.332031 L 158 301.253906 L 119 301.253906 Z M 119 254.332031 "/>
</clipPath>
<clipPath id="clip4">
  <path d="M 162 254.332031 L 196.894531 254.332031 L 196.894531 301.253906 L 162 301.253906 Z M 162 254.332031 "/>
</clipPath>
</defs>
<g id="surface1">
<path style=" stroke:none;fill-rule:nonzero;fill:rgb(100%,100%,100%);fill-opacity:1;" d="M 43.546875 254.996094 L 72.910156 254.996094 L 72.910156 260.148438 L 61.003906 260.148438 L 61.003906 296.097656 L 72.910156 296.097656 L 72.910156 301.253906 L 43.546875 301.253906 L 43.546875 296.097656 L 55.449219 296.097656 L 55.449219 260.148438 L 43.546875 260.148438 Z M 43.546875 254.996094 "/>
<g clip-path="url(#clip1)" clip-rule="nonzero">
<path style=" stroke:none;fill-rule:nonzero;fill:rgb(100%,100%,100%);fill-opacity:1;" d="M 8.164062 282.222656 L 8.164062 301.253906 L 2.609375 301.253906 L 2.609375 254.996094 L 19.144531 254.996094 C 21.523438 254.996094 23.597656 255.347656 25.359375 256.050781 C 27.125 256.710938 28.578125 257.617188 29.726562 258.761719 C 30.914062 259.90625 31.796875 261.25 32.371094 262.792969 C 32.988281 264.289062 33.296875 265.875 33.296875 267.550781 L 33.296875 269.535156 C 33.296875 271.207031 32.988281 272.816406 32.371094 274.355469 C 31.796875 275.898438 30.914062 277.265625 29.726562 278.453125 C 28.535156 279.601562 27.058594 280.523438 25.292969 281.230469 C 23.53125 281.890625 21.480469 282.222656 19.144531 282.222656 Z M 8.164062 277.066406 L 18.484375 277.066406 C 24.65625 277.066406 27.742188 274.421875 27.742188 269.136719 L 27.742188 267.949219 C 27.742188 265.613281 26.96875 263.738281 25.425781 262.332031 C 23.925781 260.875 21.613281 260.148438 18.484375 260.148438 L 8.164062 260.148438 Z M 8.164062 277.066406 "/>
</g>
<g clip-path="url(#clip2)" clip-rule="nonzero">
<path style=" stroke:none;fill-rule:nonzero;fill:rgb(100%,100%,100%);fill-opacity:1;" d="M 107.273438 298.875 L 108.070312 298.875 L 108.070312 254.996094 L 113.625 254.996094 L 113.625 301.253906 L 102.511719 301.253906 L 89.15625 257.375 L 88.359375 257.375 L 88.359375 301.253906 L 82.804688 301.253906 L 82.804688 254.996094 L 93.914062 254.996094 Z M 107.273438 298.875 "/>
</g>
<g clip-path="url(#clip3)" clip-rule="nonzero">
<path style=" stroke:none;fill-rule:nonzero;fill:rgb(100%,100%,100%);fill-opacity:1;" d="M 148.628906 289.753906 L 128.789062 289.753906 L 125.414062 301.253906 L 119.464844 301.253906 L 133.484375 254.996094 L 143.933594 254.996094 L 157.953125 301.253906 L 152 301.253906 Z M 138.3125 257.375 L 130.308594 284.601562 L 147.109375 284.601562 L 139.105469 257.375 Z M 138.3125 257.375 "/>
</g>
<g clip-path="url(#clip4)" clip-rule="nonzero">
<path style=" stroke:none;fill-rule:nonzero;fill:rgb(100%,100%,100%);fill-opacity:1;" d="M 168.222656 254.996094 L 178.605469 275.480469 L 179.796875 275.480469 L 190.175781 254.996094 L 196.261719 254.996094 L 184.6875 277.660156 L 184.6875 278.453125 L 196.261719 301.253906 L 190.175781 301.253906 L 179.796875 280.636719 L 178.605469 280.636719 L 168.222656 301.253906 L 162.136719 301.253906 L 173.710938 278.453125 L 173.710938 277.660156 L 162.136719 254.996094 Z M 168.222656 254.996094 "/>
</g>
<path style="fill:none;stroke-width:1;stroke-linecap:butt;stroke-linejoin:miter;stroke:rgb(100%,100%,100%);stroke-opacity:1;stroke-miterlimit:4;" d="M 21.619336 26.417374 L 21.948926 26.704988 L 22.278516 26.417374 L 27.799805 21.583351 L 27.970312 21.433827 L 27.970312 20.471596 L 27.798047 20.322072 L 22.275879 15.536424 L 21.948926 15.252328 L 21.621094 15.536424 L 16.098926 20.321192 L 15.92666 20.470716 L 15.92666 21.433827 L 16.097168 21.582471 Z M 21.619336 26.417374 " transform="matrix(4.444444,0,0,4.441176,0,0)"/>
<path style="fill:none;stroke-width:1;stroke-linecap:butt;stroke-linejoin:miter;stroke:rgb(100%,100%,100%);stroke-opacity:1;stroke-miterlimit:4;" d="M 33.19541 26.417374 L 33.525 26.704988 L 33.85459 26.417374 L 39.375879 21.583351 L 39.546387 21.433827 L 39.546387 20.471596 L 39.374121 20.322072 L 33.852832 15.536424 L 33.525 15.252328 L 33.197168 15.536424 L 27.675879 20.321192 L 27.502734 20.470716 L 27.502734 21.433827 L 27.673242 21.582471 Z M 33.19541 26.417374 " transform="matrix(4.444444,0,0,4.441176,0,0)"/>
<path style="fill:none;stroke-width:1;stroke-linecap:butt;stroke-linejoin:miter;stroke:rgb(100%,100%,100%);stroke-opacity:1;stroke-miterlimit:4;" d="M 10.04502 26.417374 L 10.37373 26.704988 L 10.70332 26.417374 L 16.225488 21.583351 L 16.395996 21.433827 L 16.395996 20.471596 L 16.22373 20.322072 L 10.701562 15.536424 L 10.37373 15.252328 L 10.046777 15.536424 L 4.524609 20.321192 L 4.352344 20.470716 L 4.352344 21.433827 L 4.522852 21.582471 Z M 10.04502 26.417374 " transform="matrix(4.444444,0,0,4.441176,0,0)"/>
<path style="fill:none;stroke-width:1;stroke-linecap:butt;stroke-linejoin:miter;stroke:rgb(100%,100%,100%);stroke-opacity:1;stroke-miterlimit:4;" d="M 21.619336 49.567208 L 21.948926 49.855702 L 22.278516 49.567208 L 27.799805 44.733185 L 27.970312 44.583661 L 27.970312 43.62143 L 27.798047 43.471906 L 22.275879 38.686258 L 21.948926 38.403042 L 21.621094 38.686258 L 16.098926 43.471906 L 15.92666 43.62143 L 15.92666 44.583661 L 16.097168 44.733185 Z M 21.619336 49.567208 " transform="matrix(4.444444,0,0,4.441176,0,0)"/>
<path style="fill:none;stroke-width:1;stroke-linecap:butt;stroke-linejoin:miter;stroke:rgb(100%,100%,100%);stroke-opacity:1;stroke-miterlimit:4;" d="M 21.619336 14.691173 L 21.948926 14.979667 L 22.278516 14.691173 L 27.799805 9.85715 L 27.970312 9.707626 L 27.970312 8.745395 L 27.798047 8.595871 L 22.275879 3.810224 L 21.948926 3.526128 L 21.621094 3.810224 L 16.098926 8.595871 L 15.92666 8.745395 L 15.92666 9.707626 L 16.097168 9.856271 Z M 21.619336 14.691173 " transform="matrix(4.444444,0,0,4.441176,0,0)"/>
<path style="fill:none;stroke-width:1;stroke-linecap:butt;stroke-linejoin:miter;stroke:rgb(100%,100%,100%);stroke-opacity:1;stroke-miterlimit:4;" d="M 33.19541 37.992291 L 33.525 38.280784 L 33.85459 37.992291 L 39.375879 33.158268 L 39.546387 33.008744 L 39.546387 32.046513 L 39.374121 31.896989 L 33.852832 27.111341 L 33.525 26.827245 L 33.197168 27.111341 L 27.675879 31.896989 L 27.502734 32.046513 L 27.502734 33.008744 L 27.673242 33.158268 Z M 33.19541 37.992291 " transform="matrix(4.444444,0,0,4.441176,0,0)"/>
<path style="fill:none;stroke-width:1;stroke-linecap:butt;stroke-linejoin:miter;stroke:rgb(100%,100%,100%);stroke-opacity:1;stroke-miterlimit:4;" d="M 33.19541 49.567208 L 33.525 49.855702 L 33.85459 49.567208 L 39.375879 44.733185 L 39.546387 44.583661 L 39.546387 43.62143 L 39.374121 43.471906 L 33.852832 38.686258 L 33.525 38.403042 L 33.197168 38.686258 L 27.675879 43.471906 L 27.502734 43.62143 L 27.502734 44.583661 L 27.673242 44.733185 Z M 33.19541 49.567208 " transform="matrix(4.444444,0,0,4.441176,0,0)"/>
<path style="fill:none;stroke-width:1;stroke-linecap:butt;stroke-linejoin:miter;stroke:rgb(100%,100%,100%);stroke-opacity:1;stroke-miterlimit:4;" d="M 10.04502 37.992291 L 10.37373 38.280784 L 10.70332 37.992291 L 16.225488 33.158268 L 16.395996 33.008744 L 16.395996 32.046513 L 16.22373 31.896989 L 10.701562 27.111341 L 10.37373 26.827245 L 10.046777 27.111341 L 4.524609 31.896989 L 4.352344 32.046513 L 4.352344 33.008744 L 4.522852 33.158268 Z M 10.04502 37.992291 " transform="matrix(4.444444,0,0,4.441176,0,0)"/>
<path style="fill:none;stroke-width:1;stroke-linecap:butt;stroke-linejoin:miter;stroke:rgb(100%,100%,100%);stroke-opacity:1;stroke-miterlimit:4;" d="M 10.04502 49.567208 L 10.37373 49.855702 L 10.70332 49.567208 L 16.225488 44.733185 L 16.395996 44.583661 L 16.395996 43.62143 L 16.22373 43.471906 L 10.701562 38.686258 L 10.37373 38.403042 L 10.046777 38.686258 L 4.524609 43.471906 L 4.352344 43.62143 L 4.352344 44.583661 L 4.522852 44.733185 Z M 10.04502 49.567208 " transform="matrix(4.444444,0,0,4.441176,0,0)"/>
</g>
</svg>
